<svg width="20" height="20" viewBox="0 0 20 20" fill="none" xmlns="http://www.w3.org/2000/svg">
<path d="M18.8 10.2083C18.8 9.55831 18.7417 8.93331 18.6333 8.33331H10V11.8833H14.9333C14.7167 13.025 14.0667 13.9916 13.0917 14.6416V16.95H16.0667C17.8 15.35 18.8 13 18.8 10.2083Z" fill="#4285F4"/>
<path d="M9.99974 19.1667C12.4747 19.1667 14.5497 18.3501 16.0664 16.9501L13.0914 14.6417C12.2747 15.1917 11.2331 15.5251 9.99974 15.5251C7.61641 15.5251 5.59141 13.9167 4.86641 11.7501H1.81641V14.1167C3.32474 17.1084 6.41641 19.1667 9.99974 19.1667Z" fill="#34A853"/>
<path d="M4.86665 11.7417C4.68331 11.1917 4.57498 10.6083 4.57498 10C4.57498 9.39166 4.68331 8.80833 4.86665 8.25833V5.89166H1.81665C1.19165 7.125 0.833313 8.51666 0.833313 10C0.833313 11.4833 1.19165 12.875 1.81665 14.1083L4.19165 12.2583L4.86665 11.7417Z" fill="#FBBC05"/>
<path d="M9.99974 4.48331C11.3497 4.48331 12.5497 4.94998 13.5081 5.84998L16.1331 3.22498C14.5414 1.74165 12.4747 0.833313 9.99974 0.833313C6.41641 0.833313 3.32474 2.89165 1.81641 5.89165L4.86641 8.25831C5.59141 6.09165 7.61641 4.48331 9.99974 4.48331Z" fill="#FF3B30"/>
</svg>
