<svg width="111" height="23" viewBox="0 0 111 23" fill="none" xmlns="http://www.w3.org/2000/svg">
<path d="M0 0.270309H7.40597L10.3534 11.1431C10.469 11.6056 10.7409 11.8759 11.2457 11.8759C11.7505 11.8759 12.0209 11.6056 12.1381 11.1431L15.0855 0.270309H22.4915V22.4801H17.761V11.7603C17.761 11.2197 17.45 10.8354 16.9077 10.8354C16.3654 10.8354 16.0935 11.1822 15.9388 11.7229L12.9914 22.4801H9.50172L6.55432 11.7229C6.39962 11.1822 6.16676 10.8354 5.6245 10.8354C5.08224 10.8354 4.73214 11.2213 4.73214 11.7603V22.4801H0.00162999V0.270309H0Z" fill="black"/>
<path d="M27.8294 20.3208C26.24 18.7397 25.3086 16.5804 25.3086 14.0743V8.67613C25.3086 6.17002 26.2384 4.01076 27.8294 2.42958C29.4187 0.848404 31.5519 0 34.0727 0H36.3606C38.9204 0 41.0129 0.848404 42.6413 2.42958C44.2306 4.01076 45.1621 6.17002 45.1621 8.67613V14.0743C45.1621 16.5804 44.2323 18.7397 42.6413 20.3208C41.0129 21.902 38.9188 22.7504 36.3606 22.7504H34.0727C31.5519 22.7504 29.4203 21.902 27.8294 20.3208ZM36.3589 17.9694C37.4842 17.9694 38.4921 17.5835 39.1891 16.8898C39.886 16.1961 40.2752 15.2321 40.2752 14.0743V8.67613C40.2752 7.51996 39.8877 6.55594 39.1891 5.86062C38.4905 5.16529 37.4825 4.78098 36.3589 4.78098H34.1101C32.9849 4.78098 31.9769 5.16692 31.2799 5.86062C30.5814 6.55431 30.1938 7.51833 30.1938 8.67613V14.0743C30.1938 15.2304 30.5814 16.1944 31.2799 16.8898C31.9785 17.5835 32.9865 17.9694 34.1101 17.9694H36.3589Z" fill="black"/>
<path d="M54.1655 7.05749C54.1655 6.36379 53.9718 5.90132 53.6233 5.55447C53.2748 5.2467 52.8091 5.05293 52.1105 5.05293H46.8752V0.271942H66.3395V5.05293H61.1042C60.4056 5.05293 59.9415 5.24507 59.5914 5.55447C59.2803 5.90132 59.0491 6.36379 59.0491 7.05749V22.4817H54.1639V7.05749H54.1655Z" fill="black"/>
<path d="M68.8895 0.270309H80.715C82.8856 0.270309 84.6313 1.00309 85.9877 2.35303C87.3442 3.70298 88.0428 5.39978 88.0428 7.55904V7.59812C88.0428 9.68084 87.3442 11.3386 86.0268 12.6494C84.786 13.8838 83.1576 14.5774 81.2181 14.654L87.8099 22.4817H81.3728L75.9063 15.618C75.4797 15.0774 75.2077 14.8087 74.7045 14.8087C74.1623 14.8087 73.7731 15.1946 73.7731 15.7727V22.4817H68.8879V0.271939L68.8895 0.270309ZM80.6775 10.1026C81.3761 10.1026 82.034 9.83228 82.4606 9.4089C82.9263 8.94643 83.1592 8.32927 83.1592 7.59649V7.55741C83.1592 6.82463 82.9263 6.20746 82.4606 5.78408C82.034 5.32161 81.3745 5.05129 80.6775 5.05129H75.9861C75.2875 5.05129 74.6296 5.32161 74.203 5.78408C73.7373 6.20746 73.5044 6.82463 73.5044 7.55741V7.59649C73.5044 8.32927 73.7373 8.94643 74.203 9.4089C74.6296 9.83228 75.2891 10.1026 75.9861 10.1026H80.6775Z" fill="black"/>
<path d="M97.5055 0.270309H102.702L111 22.4801H105.843L104.951 19.9349H95.2566L94.3268 22.4801H89.1697L97.5055 0.270309ZM102.817 14.3837C102.817 13.9977 102.739 13.7665 102.506 13.1119L101.15 8.98551C100.917 8.36834 100.645 8.06058 100.103 8.06058C99.5605 8.06058 99.2495 8.36834 99.0557 8.98551L97.6602 13.1119C97.4273 13.7681 97.3491 13.9994 97.3491 14.3837C97.3491 15.0399 97.8149 15.5024 98.5118 15.5024H101.692C102.391 15.5024 102.817 15.0399 102.817 14.3837Z" fill="black"/>
</svg>
