<svg width="111" height="144" viewBox="0 0 111 144" fill="none" xmlns="http://www.w3.org/2000/svg">
<path d="M99.9011 24.6168C85.1692 24.28 85.1747 12.6446 99.9 12.3089C106.031 12.3089 111 9.55381 111 6.15503C111 2.75625 106.031 0 99.9 0C93.7695 0 88.8144 2.74738 88.8 6.14063C88.3049 14.3174 67.0951 14.2886 66.6 6.15392C66.6 2.75514 61.6305 0 55.5 0C49.3695 0 44.4 2.75514 44.4 6.15392C44.4 9.5527 39.4305 12.3078 33.3 12.3078C27.1695 12.3078 22.2 9.5527 22.2 6.15392C22.2 2.75514 17.2305 0 11.1 0C-3.61638 0.332345 -3.64302 11.9688 11.1 12.3078C17.2305 12.3078 22.2 15.063 22.2 18.4618C22.2377 22.4499 15.6521 24.7586 11.1 24.6157C4.96947 24.6157 0 27.3708 0 30.7696C0.02109 35.5543 8.98989 37.9261 14.9129 36.5513C19.1653 35.6894 22.2011 33.4261 22.2011 30.7696C22.2011 27.3708 27.1706 24.6157 33.3011 24.6157C39.4316 24.6157 44.3945 21.8639 44.4011 18.4684C44.8917 10.316 66.0949 10.3127 66.6011 18.4618C66.6011 21.8605 71.5706 24.6157 77.7011 24.6157C83.8316 24.6157 88.8011 27.3708 88.8011 30.7696C88.7623 34.2049 94.0037 37.0099 100.086 36.9213C114.715 36.4549 114.488 24.9314 99.9022 24.6157L99.9011 24.6168Z" fill="black"/>
<path d="M99.9011 86.1648C85.1692 86.5015 85.1747 98.1369 99.9 98.4726C106.031 98.4726 111 101.228 111 104.627C111 108.025 106.031 110.78 99.9 110.78C93.7695 110.78 88.8144 108.033 88.8 104.64C88.3049 96.463 67.0951 96.4918 66.6 104.627C66.6 108.025 61.6305 110.78 55.5 110.78C49.3695 110.78 44.4 108.025 44.4 104.627C44.4 101.228 39.4305 98.4726 33.3 98.4726C27.1695 98.4726 22.2 101.228 22.2 104.627C22.2 108.025 17.2305 110.78 11.1 110.78C-3.61638 110.448 -3.64302 98.8116 11.1 98.4726C17.2305 98.4726 22.2 95.7175 22.2 92.3187C22.2377 88.3306 15.6521 86.0219 11.1 86.1648C4.96947 86.1648 0 83.4096 0 80.0109C0.02109 75.2262 8.98989 72.8544 14.9129 74.2292C19.1653 75.091 22.2011 77.3543 22.2011 80.0109C22.2011 83.4096 27.1706 86.1648 33.3011 86.1648C39.4316 86.1648 44.3945 88.9166 44.4011 92.312C44.8917 100.464 66.095 100.468 66.6011 92.3187C66.6011 88.9199 71.5706 86.1648 77.7011 86.1648C83.8316 86.1648 88.8011 83.4096 88.8011 80.0109C88.7623 76.5755 94.0037 73.7705 100.086 73.8591C114.715 74.3255 114.488 85.849 99.9022 86.1648H99.9011Z" fill="black"/>
<path d="M102.518 49.6911C101.713 49.5825 100.899 49.5271 100.084 49.5182C93.9956 49.5913 88.7653 46.8041 88.7997 43.361C88.7997 39.9622 83.8302 37.2071 77.6997 37.2071C71.5692 37.2071 66.5997 34.4519 66.5997 31.0531C66.0902 22.9052 44.9025 22.9096 44.3997 31.0531C44.3997 34.4519 39.4302 37.2071 33.2997 37.2071C27.1692 37.2071 22.1997 39.9622 22.1997 43.361C22.1997 46.7609 17.2258 49.5171 11.0964 49.5149C10.3039 49.5171 9.51353 49.5614 8.72987 49.6567C5.49755 50.0433 0.515872 51.6408 0.0141525 55.352C-0.0047175 55.5614 -0.0047175 55.7763 0.0141525 55.9857C0.515872 59.7002 5.50643 61.2954 8.72987 61.6809C9.51464 61.7762 10.3039 61.8205 11.0964 61.8228C17.2247 61.8216 22.2008 64.5779 22.1997 67.9767C22.1997 71.3754 27.1692 74.1306 33.2997 74.1306C39.4302 74.1306 44.3997 76.8857 44.3997 80.2845C44.3997 83.6833 49.3692 86.4384 55.4997 86.4384C61.6302 86.4384 66.5997 83.6833 66.5997 80.2845C66.5997 76.8857 71.5692 74.1306 77.6997 74.1306C83.8302 74.1306 88.7997 71.3754 88.7997 67.9767C88.7986 64.5768 93.7769 61.8205 99.9053 61.8228C112.175 61.8128 115.915 51.9189 102.519 49.6911H102.518ZM88.7986 55.6699C88.7986 59.0687 83.8291 61.8239 77.6986 61.8239C71.5681 61.8239 66.5986 64.579 66.5986 67.9778C66.5986 71.3766 61.6291 74.1317 55.4986 74.1317C49.3681 74.1317 44.3986 71.3766 44.3986 67.9778C44.3986 64.5757 39.428 61.825 33.2986 61.8239C27.1681 61.8239 22.1986 59.0687 22.1986 55.6699C22.1986 52.2712 27.1681 49.516 33.2986 49.516C39.428 49.516 44.3975 46.7642 44.3986 43.3621C44.3986 39.9633 49.3681 37.2082 55.4986 37.2082C61.6291 37.2082 66.5986 39.9633 66.5986 43.3621C66.5986 46.7609 71.5681 49.516 77.6986 49.516C83.8291 49.516 88.7986 52.2712 88.7986 55.6699Z" fill="black"/>
<path d="M0 121.248H7.40597L10.3534 132.121C10.469 132.583 10.7409 132.853 11.2457 132.853C11.7505 132.853 12.0209 132.583 12.1381 132.121L15.0855 121.248H22.4915V143.458H17.761V132.738C17.761 132.197 17.45 131.813 16.9077 131.813C16.3654 131.813 16.0935 132.16 15.9388 132.7L12.9914 143.458H9.50172L6.55432 132.7C6.39962 132.16 6.16676 131.813 5.6245 131.813C5.08224 131.813 4.73214 132.199 4.73214 132.738V143.458H0.00162999V121.248H0Z" fill="black"/>
<path d="M27.8294 141.298C26.24 139.717 25.3086 137.558 25.3086 135.052V129.654C25.3086 127.148 26.2384 124.988 27.8294 123.407C29.4187 121.826 31.5519 120.978 34.0727 120.978H36.3606C38.9204 120.978 41.0129 121.826 42.6413 123.407C44.2306 124.988 45.1621 127.148 45.1621 129.654V135.052C45.1621 137.558 44.2323 139.717 42.6413 141.298C41.0129 142.88 38.9188 143.728 36.3606 143.728H34.0727C31.5519 143.728 29.4203 142.88 27.8294 141.298ZM36.3589 138.947C37.4842 138.947 38.4921 138.561 39.1891 137.867C39.886 137.174 40.2752 136.21 40.2752 135.052V129.654C40.2752 128.497 39.8877 127.533 39.1891 126.838C38.4905 126.143 37.4825 125.758 36.3589 125.758H34.1101C32.9849 125.758 31.9769 126.144 31.2799 126.838C30.5814 127.532 30.1938 128.496 30.1938 129.654V135.052C30.1938 136.208 30.5814 137.172 31.2799 137.867C31.9785 138.561 32.9865 138.947 34.1101 138.947H36.3589Z" fill="black"/>
<path d="M54.1655 128.035C54.1655 127.341 53.9717 126.879 53.6233 126.532C53.2748 126.224 52.8091 126.03 52.1105 126.03H46.8752V121.249H66.3395V126.03H61.1041C60.4056 126.03 59.9415 126.223 59.5914 126.532C59.2803 126.879 59.0491 127.341 59.0491 128.035V143.459H54.1639V128.035H54.1655Z" fill="black"/>
<path d="M68.8895 121.248H80.715C82.8856 121.248 84.6313 121.981 85.9877 123.331C87.3442 124.681 88.0428 126.377 88.0428 128.537V128.576C88.0428 130.658 87.3442 132.316 86.0268 133.627C84.786 134.861 83.1576 135.555 81.2182 135.631L87.8099 143.459H81.3729L75.9063 136.596C75.4797 136.055 75.2077 135.786 74.7045 135.786C74.1623 135.786 73.7731 136.172 73.7731 136.75V143.459H68.8879V121.249L68.8895 121.248ZM80.6775 131.08C81.3761 131.08 82.034 130.81 82.4606 130.386C82.9264 129.924 83.1592 129.307 83.1592 128.574V128.535C83.1592 127.802 82.9264 127.185 82.4606 126.762C82.034 126.299 81.3745 126.029 80.6775 126.029H75.9861C75.2875 126.029 74.6296 126.299 74.203 126.762C73.7373 127.185 73.5044 127.802 73.5044 128.535V128.574C73.5044 129.307 73.7373 129.924 74.203 130.386C74.6296 130.81 75.2891 131.08 75.9861 131.08H80.6775Z" fill="black"/>
<path d="M97.5055 121.248H102.702L111 143.458H105.843L104.95 140.912H95.2566L94.3268 143.458H89.1697L97.5055 121.248ZM102.817 135.361C102.817 134.975 102.739 134.744 102.506 134.089L101.15 129.963C100.917 129.346 100.645 129.038 100.103 129.038C99.5605 129.038 99.2495 129.346 99.0557 129.963L97.6601 134.089C97.4273 134.746 97.3491 134.977 97.3491 135.361C97.3491 136.017 97.8148 136.48 98.5118 136.48H101.692C102.391 136.48 102.817 136.017 102.817 135.361Z" fill="black"/>
</svg>
